<svg xmlns="http://www.w3.org/2000/svg" width="181.7" height="23.547" viewBox="0 0 181.7 23.547">
  <path id="パス_1" data-name="パス 1" d="M2.438-22.953H5.469v11.188L16.656-22.953h4.3L11.406-13.7,21.219,0H17.172L9.141-11.516,5.469-8V0H2.438Zm27.369,6.3h2.859V0H29.806Zm0-6.3h2.859v3.188H29.806Zm13.587,6.219h2.672v2.891A6.387,6.387,0,0,1,47.675-15.9a4.173,4.173,0,0,1,2.953-1.211q.078,0,.266.016t.641.063v2.969a4.2,4.2,0,0,0-.461-.062q-.211-.016-.461-.016a4.014,4.014,0,0,0-3.266,1.367,4.772,4.772,0,0,0-1.141,3.148V0H43.394ZM62.528-4.453a2.316,2.316,0,0,0,.891,1.922,3.3,3.3,0,0,0,2.109.7A6.413,6.413,0,0,0,68.4-2.516,3.869,3.869,0,0,0,70.747-6.25V-8.516a4.812,4.812,0,0,1-1.328.547,11.317,11.317,0,0,1-1.594.313l-1.7.219a6.514,6.514,0,0,0-2.3.641A2.5,2.5,0,0,0,62.528-4.453Zm6.812-5.687a1.528,1.528,0,0,0,1.3-.812,2.472,2.472,0,0,0,.188-1.078A2.284,2.284,0,0,0,69.8-14.117a5.491,5.491,0,0,0-2.93-.648,3.723,3.723,0,0,0-3.125,1.188,3.907,3.907,0,0,0-.672,1.953H60.45q.078-3.094,2.008-4.3a8.244,8.244,0,0,1,4.477-1.211,9.108,9.108,0,0,1,4.8,1.125,3.817,3.817,0,0,1,1.828,3.5v9.641a1.234,1.234,0,0,0,.18.7.867.867,0,0,0,.758.266q.188,0,.422-.023t.5-.07V.078a7.833,7.833,0,0,1-1,.234,7.308,7.308,0,0,1-.937.047A2.313,2.313,0,0,1,71.372-.672a3.98,3.98,0,0,1-.484-1.547A7.156,7.156,0,0,1,68.419-.266a7.636,7.636,0,0,1-3.547.828,5.274,5.274,0,0,1-3.8-1.414,4.7,4.7,0,0,1-1.477-3.539A4.558,4.558,0,0,1,61.044-8a6.914,6.914,0,0,1,3.812-1.578Zm14.494-.219h7.844v2.891H83.834Zm17.791-6.375h2.781v2.375a9.348,9.348,0,0,1,1.813-1.8,5.451,5.451,0,0,1,3.156-.953,4.967,4.967,0,0,1,3.219.984,5.145,5.145,0,0,1,1.25,1.656,6.079,6.079,0,0,1,2.2-1.992,6.145,6.145,0,0,1,2.844-.648q3.375,0,4.594,2.438a7.967,7.967,0,0,1,.656,3.531V0h-2.922V-11.625a2.708,2.708,0,0,0-.836-2.3,3.308,3.308,0,0,0-2.039-.625,4.048,4.048,0,0,0-2.852,1.109,4.872,4.872,0,0,0-1.2,3.7V0h-2.859V-10.922a5.675,5.675,0,0,0-.406-2.484,2.477,2.477,0,0,0-2.391-1.172,4.125,4.125,0,0,0-2.9,1.234q-1.3,1.234-1.3,4.469V0h-2.812Zm40.025-.375a7.633,7.633,0,0,1,3.453.836,6.368,6.368,0,0,1,2.547,2.164,7.466,7.466,0,0,1,1.125,2.953,19.321,19.321,0,0,1,.25,3.688H136.759a7.157,7.157,0,0,0,1.2,4.086,4.029,4.029,0,0,0,3.484,1.539A4.5,4.5,0,0,0,144.962-3.3a4.9,4.9,0,0,0,1.063-1.953h2.766a5.825,5.825,0,0,1-.727,2.055,7.308,7.308,0,0,1-1.383,1.852A6.554,6.554,0,0,1,143.509.344a9.636,9.636,0,0,1-2.3.25,7.047,7.047,0,0,1-5.3-2.273,8.846,8.846,0,0,1-2.172-6.367,9.618,9.618,0,0,1,2.188-6.547A7.216,7.216,0,0,1,141.65-17.109ZM146.134-9.7a7.286,7.286,0,0,0-.8-2.922,4.084,4.084,0,0,0-3.859-2.031,4.278,4.278,0,0,0-3.25,1.4A5.283,5.283,0,0,0,136.837-9.7Zm12.681-13.25h2.7V-9.625l7.219-7.109h3.594l-6.406,6.266L172.691,0H169.1l-5.219-8.437-2.359,2.156V0h-2.7Zm22.462,6.3h2.859V0h-2.859Zm0-6.3h2.859v3.188h-2.859Z" transform="translate(-2.438 22.953)" fill="#fff"/>
</svg>
