<svg xmlns="http://www.w3.org/2000/svg" width="185.763" height="23.641" viewBox="0 0 185.763 23.641">
  <path id="パス_2" data-name="パス 2" d="M2.234-.062a8.306,8.306,0,0,0,.18-.812q.086-.484.148-1.2t.094-1.711q.031-.992.031-2.32V-16.281q0-1.328-.031-2.32T2.563-20.32q-.063-.727-.148-1.211a8.306,8.306,0,0,0-.18-.812v-.062h3.75v.063a8.306,8.306,0,0,0-.18.813q-.086.484-.141,1.211T5.57-18.6q-.039.992-.039,2.32V-12.8l9.125-7.453q1.531-1.25,1.531-2.156h4.391v.063a5.942,5.942,0,0,0-1.867.836A21.223,21.223,0,0,0,16.7-20L8.641-13.25l9.7,10.656q.609.625,1.039,1.039t.758.688a6.731,6.731,0,0,0,.6.453q.273.18.57.352V0H16.734a2.472,2.472,0,0,0-.211-.359q-.148-.219-.344-.453T15.758-1.3q-.227-.25-.43-.469l-9.8-10.75v6.406q0,1.328.039,2.32t.094,1.711q.055.719.141,1.2a8.306,8.306,0,0,0,.18.813V0H2.234ZM29.572-9.891q0-1.328-.039-2.32t-.094-1.711q-.055-.719-.141-1.2a8.306,8.306,0,0,0-.18-.812V-16h3.609v.063a7.188,7.188,0,0,0-.172.813q-.078.484-.141,1.2t-.094,1.711q-.031.992-.031,2.32v3.781q0,1.328.031,2.32t.094,1.711q.063.719.141,1.2a7.188,7.188,0,0,0,.172.813V0H29.119V-.062a8.306,8.306,0,0,0,.18-.812q.086-.484.141-1.2t.094-1.711q.039-.992.039-2.32Zm-.328-10.844a1.605,1.605,0,0,1,.133-.648,1.782,1.782,0,0,1,.352-.531,1.616,1.616,0,0,1,.523-.359,1.644,1.644,0,0,1,.664-.133,1.644,1.644,0,0,1,.664.133,1.709,1.709,0,0,1,.531.359,1.709,1.709,0,0,1,.359.531,1.605,1.605,0,0,1,.133.648,1.633,1.633,0,0,1-.484,1.2,1.633,1.633,0,0,1-1.2.484,1.644,1.644,0,0,1-.664-.133,1.616,1.616,0,0,1-.523-.359,1.782,1.782,0,0,1-.352-.531A1.644,1.644,0,0,1,29.244-20.734ZM43.6-9.891q0-1.328-.039-2.32t-.094-1.711q-.055-.719-.141-1.2a8.306,8.306,0,0,0-.18-.812V-16h3.609v.063a5.406,5.406,0,0,0-.211.875,12.874,12.874,0,0,0-.133,1.328q.578-.484,1.2-.953a10.706,10.706,0,0,1,1.281-.828,7.673,7.673,0,0,1,1.336-.578,4.439,4.439,0,0,1,1.367-.219,6.008,6.008,0,0,1,.734.039,3.85,3.85,0,0,1,.563.109,3.82,3.82,0,0,1,.453.156l.391.164-.766,2.984-.266-.062a2.068,2.068,0,0,0-.7-1.1,2.185,2.185,0,0,0-1.406-.414,3.3,3.3,0,0,0-1.016.172,6.042,6.042,0,0,0-1.078.477,10.725,10.725,0,0,0-1.094.7q-.547.4-1.062.836-.031.453-.031.984v5.156q0,1.328.031,2.32t.094,1.711q.063.719.141,1.2a7.188,7.188,0,0,0,.172.813V0H43.144V-.062a8.306,8.306,0,0,0,.18-.812q.086-.484.141-1.2t.094-1.711q.039-.992.039-2.32ZM60.653-4.609a4.31,4.31,0,0,1,.508-2.141A4.986,4.986,0,0,1,62.513-8.3a7.392,7.392,0,0,1,1.922-1.039,14.449,14.449,0,0,1,2.234-.625,19.639,19.639,0,0,1,2.281-.312q1.125-.086,2.063-.1v-.8a5.346,5.346,0,0,0-.266-1.781A3.32,3.32,0,0,0,70-14.2a3.04,3.04,0,0,0-1.164-.734,4.418,4.418,0,0,0-1.492-.242,6.554,6.554,0,0,0-1.109.094,6.279,6.279,0,0,0-1.133.313,8.247,8.247,0,0,0-1.234.594,12.912,12.912,0,0,0-1.4.953l-.156-.094,1.063-2.2a7.87,7.87,0,0,1,1.016-.383,9.6,9.6,0,0,1,1.016-.242,9.886,9.886,0,0,1,1.055-.133q.539-.039,1.133-.039a8.706,8.706,0,0,1,2.8.4A5.212,5.212,0,0,1,72.3-14.82,4.2,4.2,0,0,1,73.387-13.2a5.7,5.7,0,0,1,.344,1.992v5.094q0,1.328.039,2.32t.094,1.711q.055.719.141,1.2a8.3,8.3,0,0,0,.18.813V0H70.731V-.062a3.236,3.236,0,0,0,.117-.562q.039-.313.07-.75a8.072,8.072,0,0,1-.773.578,6.188,6.188,0,0,1-1.016.539,6.945,6.945,0,0,1-1.266.391,7.3,7.3,0,0,1-1.523.148,6.265,6.265,0,0,1-4.2-1.273A4.506,4.506,0,0,1,60.653-4.609ZM71.012-9.156a26.976,26.976,0,0,0-2.734.164,7.465,7.465,0,0,0-2.32.617,3.934,3.934,0,0,0-1.609,1.336,3.971,3.971,0,0,0-.6,2.3,3.927,3.927,0,0,0,.922,2.813,3.348,3.348,0,0,0,2.547.969,4.207,4.207,0,0,0,1.367-.211A4.641,4.641,0,0,0,69.677-1.7a3.959,3.959,0,0,0,.8-.7,3.44,3.44,0,0,0,.5-.742q.031-.594.031-1.32v-4.7ZM83.725-7.141V-9.375H94.287v2.234ZM114.8-10.531a6.63,6.63,0,0,0-.211-1.781,3.421,3.421,0,0,0-.609-1.242,2.489,2.489,0,0,0-.961-.734,3.129,3.129,0,0,0-1.25-.242,3.428,3.428,0,0,0-1.047.188,7.889,7.889,0,0,0-1.2.508,11.924,11.924,0,0,0-1.234.742,11.774,11.774,0,0,0-1.164.906q-.031.5-.031,1.07v5.008q0,1.328.031,2.32t.094,1.711q.062.719.141,1.2a7.189,7.189,0,0,0,.172.813V0h-3.609V-.062a8.3,8.3,0,0,0,.18-.812q.086-.484.141-1.2t.094-1.711q.039-.992.039-2.32V-9.891q0-1.328-.039-2.32t-.094-1.711q-.055-.719-.141-1.2a8.3,8.3,0,0,0-.18-.812V-16h3.609v.063a4.6,4.6,0,0,0-.2.914q-.07.555-.148,1.4.625-.5,1.344-.984a12.8,12.8,0,0,1,1.477-.859,10.1,10.1,0,0,1,1.523-.609,5.157,5.157,0,0,1,1.516-.234,4.883,4.883,0,0,1,1.578.234,4.022,4.022,0,0,1,1.2.641,3.871,3.871,0,0,1,.867.953,4.6,4.6,0,0,1,.539,1.172q.641-.547,1.4-1.086a13.542,13.542,0,0,1,1.563-.961,10.149,10.149,0,0,1,1.641-.687,5.376,5.376,0,0,1,1.633-.266,4.628,4.628,0,0,1,2.07.422,3.979,3.979,0,0,1,1.391,1.109,4.4,4.4,0,0,1,.781,1.57,6.733,6.733,0,0,1,.242,1.789v5.313q0,1.328.031,2.32t.094,1.711q.063.719.148,1.2a8.307,8.307,0,0,0,.18.813V0h-3.625V-.062a8.3,8.3,0,0,0,.18-.812q.086-.484.148-1.2t.094-1.711q.031-.992.031-2.32v-4.422a4.6,4.6,0,0,0-.828-3.031,2.771,2.771,0,0,0-2.219-.969,3.54,3.54,0,0,0-1.07.188,7.6,7.6,0,0,0-1.211.516,12.309,12.309,0,0,0-1.25.758,12.124,12.124,0,0,0-1.172.914,2.277,2.277,0,0,1,.031.375v5.672q0,1.328.039,2.32t.094,1.711q.055.719.141,1.2a8.3,8.3,0,0,0,.18.813V0h-3.609V-.062a7.189,7.189,0,0,0,.172-.812q.078-.484.141-1.2t.094-1.711q.031-.992.031-2.32ZM146.056.281a9.5,9.5,0,0,1-3.25-.547,7.568,7.568,0,0,1-2.641-1.6,7.452,7.452,0,0,1-1.773-2.609,9.166,9.166,0,0,1-.648-3.555,8.856,8.856,0,0,1,.594-3.273,8.083,8.083,0,0,1,1.641-2.617,7.584,7.584,0,0,1,2.445-1.734,7.324,7.324,0,0,1,3.023-.625,7.9,7.9,0,0,1,2.984.555,6.746,6.746,0,0,1,2.383,1.609,7.6,7.6,0,0,1,1.594,2.609,10.714,10.714,0,0,1,.633,3.539q-1.766-.031-3.531-.047t-3.672-.016q-1.359,0-2.648.016t-2.32.047a12.07,12.07,0,0,0,.508,2.938,7.045,7.045,0,0,0,1.141,2.242,4.93,4.93,0,0,0,1.766,1.43,5.356,5.356,0,0,0,2.352.5,6.724,6.724,0,0,0,1.711-.211,5.992,5.992,0,0,0,1.461-.586,5.667,5.667,0,0,0,1.172-.883,5.65,5.65,0,0,0,.875-1.1l.188.094L150.884-.766a9.686,9.686,0,0,1-2.016.742A11.3,11.3,0,0,1,146.056.281ZM143.978-9.25q1.563,0,3.133-.008t2.852-.055a10.249,10.249,0,0,0-.531-2.437,6.246,6.246,0,0,0-1-1.828,4.252,4.252,0,0,0-1.437-1.156,4.094,4.094,0,0,0-1.828-.406,3.521,3.521,0,0,0-1.664.4,3.939,3.939,0,0,0-1.32,1.148,6.106,6.106,0,0,0-.906,1.836,9.651,9.651,0,0,0-.406,2.477q.7.031,1.484.031Zm18.822-8q0-1.328-.039-2.32t-.094-1.711q-.055-.719-.141-1.2a8.307,8.307,0,0,0-.18-.812v-.062h3.609v.063a7.187,7.187,0,0,0-.172.813q-.078.484-.141,1.2t-.094,1.711q-.031.992-.031,2.32v7.781l5.109-4.578q1.344-1.172,1.344-1.953H175.6v.063a4.4,4.4,0,0,0-.773.32,6.316,6.316,0,0,0-.734.461q-.367.266-.766.6t-.867.758l-4.578,4.172L174.159-2.2q.281.344.609.7t.656.648a6.62,6.62,0,0,0,.641.516,1.725,1.725,0,0,0,.578.281V0h-4.531a1.94,1.94,0,0,0-.211-.844,6.109,6.109,0,0,0-.758-1.109l-5.625-6.687v2.531q0,1.328.031,2.32t.094,1.711q.063.719.141,1.2a7.187,7.187,0,0,0,.172.813V0h-3.609V-.062a8.307,8.307,0,0,0,.18-.812q.086-.484.141-1.2t.094-1.711q.039-.992.039-2.32Zm22.041,7.359q0-1.328-.039-2.32t-.094-1.711q-.055-.719-.141-1.2a8.307,8.307,0,0,0-.18-.812V-16H188v.063a7.187,7.187,0,0,0-.172.813q-.078.484-.141,1.2t-.094,1.711q-.031.992-.031,2.32v3.781q0,1.328.031,2.32t.094,1.711q.063.719.141,1.2A7.187,7.187,0,0,0,188-.062V0h-3.609V-.062a8.307,8.307,0,0,0,.18-.812q.086-.484.141-1.2t.094-1.711q.039-.992.039-2.32Zm-.328-10.844a1.6,1.6,0,0,1,.133-.648,1.782,1.782,0,0,1,.352-.531,1.616,1.616,0,0,1,.523-.359,1.644,1.644,0,0,1,.664-.133,1.644,1.644,0,0,1,.664.133,1.709,1.709,0,0,1,.531.359,1.709,1.709,0,0,1,.359.531,1.6,1.6,0,0,1,.133.648,1.633,1.633,0,0,1-.484,1.2,1.633,1.633,0,0,1-1.2.484,1.644,1.644,0,0,1-.664-.133,1.616,1.616,0,0,1-.523-.359,1.782,1.782,0,0,1-.352-.531A1.644,1.644,0,0,1,184.512-20.734Z" transform="translate(-2.234 23.359)" fill="#fff"/>
</svg>
