<svg xmlns="http://www.w3.org/2000/svg" width="296.235" height="105.256" viewBox="0 0 296.235 105.256">
  <path id="パス_1" data-name="パス 1" d="M3.491-.1a12.978,12.978,0,0,0,.281-1.27q.134-.757.232-1.88T4.15-5.92Q4.2-7.471,4.2-9.546V-25.439q0-2.075-.049-3.625T4-31.75q-.1-1.135-.232-1.892a12.978,12.978,0,0,0-.281-1.27v-.1H9.351v.1a12.978,12.978,0,0,0-.281,1.27q-.134.757-.22,1.892T8.7-29.065q-.061,1.55-.061,3.625V-20L22.9-31.641q2.393-1.953,2.393-3.369h6.86v.1a9.285,9.285,0,0,0-2.917,1.306A33.16,33.16,0,0,0,26.1-31.25L13.5-20.7,28.662-4.053q.952.977,1.624,1.624T31.47-1.355a10.517,10.517,0,0,0,.94.708q.427.281.891.549V0H26.147a3.862,3.862,0,0,0-.33-.562q-.232-.342-.537-.708t-.659-.757q-.354-.391-.671-.732L8.643-19.556v10.01q0,2.075.061,3.625T8.85-3.247q.085,1.123.22,1.88A12.978,12.978,0,0,0,9.351-.1V0H3.491ZM51.206-15.454q0-2.075-.061-3.625T51-21.753q-.085-1.123-.22-1.88A12.978,12.978,0,0,0,50.5-24.9V-25h5.64v.1a11.232,11.232,0,0,0-.269,1.27q-.122.757-.22,1.88T55.5-19.08q-.049,1.55-.049,3.625v5.908q0,2.075.049,3.625t.146,2.673q.1,1.123.22,1.88A11.232,11.232,0,0,0,56.138-.1V0H50.5V-.1a12.978,12.978,0,0,0,.281-1.27q.134-.757.22-1.88t.146-2.673q.061-1.55.061-3.625ZM50.693-32.4a2.508,2.508,0,0,1,.208-1.013,2.784,2.784,0,0,1,.549-.83,2.525,2.525,0,0,1,.818-.562,2.568,2.568,0,0,1,1.038-.208,2.568,2.568,0,0,1,1.038.208,2.67,2.67,0,0,1,.83.562,2.67,2.67,0,0,1,.562.83,2.508,2.508,0,0,1,.208,1.013,2.552,2.552,0,0,1-.757,1.88,2.552,2.552,0,0,1-1.88.757,2.568,2.568,0,0,1-1.038-.208,2.525,2.525,0,0,1-.818-.562,2.784,2.784,0,0,1-.549-.83A2.568,2.568,0,0,1,50.693-32.4ZM78.12-15.454q0-2.075-.061-3.625t-.146-2.673q-.085-1.123-.22-1.88a12.977,12.977,0,0,0-.281-1.27V-25h5.64v.1a8.446,8.446,0,0,0-.33,1.367,20.118,20.118,0,0,0-.208,2.075q.9-.757,1.88-1.489a16.728,16.728,0,0,1,2-1.294,11.989,11.989,0,0,1,2.087-.9,6.936,6.936,0,0,1,2.136-.342,9.387,9.387,0,0,1,1.147.061,6.015,6.015,0,0,1,.879.171,5.968,5.968,0,0,1,.708.244l.61.256-1.2,4.663-.415-.1a3.23,3.23,0,0,0-1.1-1.721,3.414,3.414,0,0,0-2.2-.647,5.153,5.153,0,0,0-1.587.269,9.441,9.441,0,0,0-1.685.745,16.758,16.758,0,0,0-1.709,1.1q-.854.623-1.66,1.306-.049.708-.049,1.538v8.057q0,2.075.049,3.625t.146,2.673q.1,1.123.22,1.88A11.232,11.232,0,0,0,83.052-.1V0h-5.64V-.1a12.977,12.977,0,0,0,.281-1.27q.134-.757.22-1.88t.146-2.673q.061-1.55.061-3.625ZM109.771-7.2a6.734,6.734,0,0,1,.793-3.345,7.79,7.79,0,0,1,2.112-2.417,11.55,11.55,0,0,1,3-1.624,22.577,22.577,0,0,1,3.491-.977,30.686,30.686,0,0,1,3.564-.488q1.758-.134,3.223-.159v-1.245a8.353,8.353,0,0,0-.415-2.783,5.188,5.188,0,0,0-1.172-1.941,4.75,4.75,0,0,0-1.819-1.147,6.9,6.9,0,0,0-2.332-.378,10.24,10.24,0,0,0-1.733.146,9.81,9.81,0,0,0-1.77.488,12.886,12.886,0,0,0-1.929.928,20.175,20.175,0,0,0-2.185,1.489l-.244-.146,1.66-3.442a12.3,12.3,0,0,1,1.587-.6,15,15,0,0,1,1.587-.378,15.447,15.447,0,0,1,1.648-.208q.842-.061,1.77-.061a13.6,13.6,0,0,1,4.382.623,8.144,8.144,0,0,1,2.979,1.709,6.556,6.556,0,0,1,1.7,2.539,8.9,8.9,0,0,1,.537,3.113v7.959q0,2.075.061,3.625t.146,2.673q.085,1.123.22,1.88a12.979,12.979,0,0,0,.281,1.27V0h-5.4V-.1a5.057,5.057,0,0,0,.183-.879q.061-.488.11-1.172a12.612,12.612,0,0,1-1.208.9,9.669,9.669,0,0,1-1.587.842,10.852,10.852,0,0,1-1.978.61,11.41,11.41,0,0,1-2.38.232,9.789,9.789,0,0,1-6.567-1.99A7.041,7.041,0,0,1,109.771-7.2Zm16.187-7.1a42.15,42.15,0,0,0-4.272.256,11.665,11.665,0,0,0-3.625.964A6.147,6.147,0,0,0,115.544-11a6.205,6.205,0,0,0-.94,3.6A6.136,6.136,0,0,0,116.045-3a5.231,5.231,0,0,0,3.979,1.514,6.573,6.573,0,0,0,2.136-.33,7.251,7.251,0,0,0,1.709-.83,6.185,6.185,0,0,0,1.257-1.1,5.375,5.375,0,0,0,.781-1.16q.049-.928.049-2.063v-7.336Zm42.905-2.148a10.359,10.359,0,0,0-.33-2.783,5.346,5.346,0,0,0-.952-1.941,3.889,3.889,0,0,0-1.5-1.147,4.889,4.889,0,0,0-1.953-.378,5.356,5.356,0,0,0-1.636.293,12.325,12.325,0,0,0-1.868.793,18.631,18.631,0,0,0-1.929,1.16,18.4,18.4,0,0,0-1.819,1.416q-.049.781-.049,1.672v7.825q0,2.075.049,3.625t.146,2.673q.1,1.123.22,1.88A11.231,11.231,0,0,0,157.51-.1V0h-5.64V-.1a12.979,12.979,0,0,0,.281-1.27q.134-.757.22-1.88t.146-2.673q.061-1.55.061-3.625v-5.908q0-2.075-.061-3.625t-.146-2.673q-.085-1.123-.22-1.88a12.979,12.979,0,0,0-.281-1.27V-25h5.64v.1a7.191,7.191,0,0,0-.305,1.428q-.11.867-.232,2.185.977-.781,2.1-1.538a19.994,19.994,0,0,1,2.307-1.343,15.781,15.781,0,0,1,2.38-.952,8.059,8.059,0,0,1,2.368-.366,7.63,7.63,0,0,1,2.466.366,6.285,6.285,0,0,1,1.88,1,6.048,6.048,0,0,1,1.355,1.489,7.19,7.19,0,0,1,.842,1.831q1-.854,2.185-1.7A21.159,21.159,0,0,1,177.3-24a15.857,15.857,0,0,1,2.563-1.074,8.4,8.4,0,0,1,2.551-.415,7.231,7.231,0,0,1,3.235.659A6.218,6.218,0,0,1,187.82-23.1a6.88,6.88,0,0,1,1.221,2.454,10.521,10.521,0,0,1,.378,2.8v8.3q0,2.075.049,3.625t.146,2.673q.1,1.123.232,1.88a12.979,12.979,0,0,0,.281,1.27V0h-5.664V-.1a12.979,12.979,0,0,0,.281-1.27q.134-.757.232-1.88t.146-2.673q.049-1.55.049-3.625v-6.909a7.19,7.19,0,0,0-1.294-4.736,4.329,4.329,0,0,0-3.467-1.514,5.531,5.531,0,0,0-1.672.293,11.871,11.871,0,0,0-1.892.806,19.232,19.232,0,0,0-1.953,1.184,18.943,18.943,0,0,0-1.831,1.428,3.559,3.559,0,0,1,.049.586v8.862q0,2.075.061,3.625t.146,2.673q.085,1.123.22,1.88a12.979,12.979,0,0,0,.281,1.27V0h-5.64V-.1a11.231,11.231,0,0,0,.269-1.27q.122-.757.22-1.88t.146-2.673q.049-1.55.049-3.625ZM222.705.439a14.85,14.85,0,0,1-5.078-.854,11.825,11.825,0,0,1-4.126-2.5,11.643,11.643,0,0,1-2.771-4.077,14.322,14.322,0,0,1-1.013-5.554,13.837,13.837,0,0,1,.928-5.115,12.63,12.63,0,0,1,2.563-4.089,11.849,11.849,0,0,1,3.821-2.71,11.444,11.444,0,0,1,4.724-.977,12.348,12.348,0,0,1,4.663.867,10.541,10.541,0,0,1,3.723,2.515,11.876,11.876,0,0,1,2.49,4.077,16.74,16.74,0,0,1,.989,5.53q-2.759-.049-5.518-.073t-5.737-.024q-2.124,0-4.138.024t-3.625.073a18.86,18.86,0,0,0,.793,4.59,11.007,11.007,0,0,0,1.782,3.5,7.7,7.7,0,0,0,2.759,2.234,8.368,8.368,0,0,0,3.674.781,10.507,10.507,0,0,0,2.673-.33,9.362,9.362,0,0,0,2.283-.916A8.855,8.855,0,0,0,230.4-3.967a8.828,8.828,0,0,0,1.367-1.721l.293.146L230.249-1.2A15.134,15.134,0,0,1,227.1-.037,17.658,17.658,0,0,1,222.705.439Zm-3.247-14.893q2.441,0,4.9-.012t4.456-.085a16.014,16.014,0,0,0-.83-3.809,9.759,9.759,0,0,0-1.562-2.856,6.644,6.644,0,0,0-2.246-1.807,6.4,6.4,0,0,0-2.856-.635,5.5,5.5,0,0,0-2.6.623,6.154,6.154,0,0,0-2.063,1.794,9.541,9.541,0,0,0-1.416,2.869,15.079,15.079,0,0,0-.635,3.87q1.1.049,2.319.049Zm34.409-12.5q0-2.075-.061-3.625t-.146-2.673q-.085-1.123-.22-1.88a12.979,12.979,0,0,0-.281-1.27v-.1h5.64v.1a11.234,11.234,0,0,0-.269,1.27q-.122.757-.22,1.88t-.146,2.673q-.049,1.55-.049,3.625v12.158l7.983-7.153q2.1-1.831,2.1-3.052h5.664v.1a6.866,6.866,0,0,0-1.208.5,9.869,9.869,0,0,0-1.147.72q-.574.415-1.2.94t-1.355,1.184L261.8-15.039l9.814,11.6q.439.537.952,1.086t1.025,1.013a10.341,10.341,0,0,0,1,.806,2.7,2.7,0,0,0,.9.439V0h-7.08a3.031,3.031,0,0,0-.33-1.318A9.544,9.544,0,0,0,266.9-3.052L258.115-13.5v3.955q0,2.075.049,3.625t.146,2.673q.1,1.123.22,1.88A11.234,11.234,0,0,0,258.8-.1V0h-5.64V-.1a12.979,12.979,0,0,0,.281-1.27q.134-.757.22-1.88t.146-2.673q.061-1.55.061-3.625Zm39.438,11.5q0-2.075-.061-3.625t-.146-2.673q-.085-1.123-.22-1.88a12.975,12.975,0,0,0-.281-1.27V-25h5.64v.1a11.234,11.234,0,0,0-.269,1.27q-.122.757-.22,1.88T297.6-19.08q-.049,1.55-.049,3.625v5.908q0,2.075.049,3.625t.146,2.673q.1,1.123.22,1.88a11.234,11.234,0,0,0,.269,1.27V0H292.6V-.1a12.975,12.975,0,0,0,.281-1.27q.134-.757.22-1.88t.146-2.673q.061-1.55.061-3.625ZM292.793-32.4A2.508,2.508,0,0,1,293-33.411a2.784,2.784,0,0,1,.549-.83,2.525,2.525,0,0,1,.818-.562,2.568,2.568,0,0,1,1.038-.208,2.568,2.568,0,0,1,1.038.208,2.67,2.67,0,0,1,.83.562,2.67,2.67,0,0,1,.562.83,2.508,2.508,0,0,1,.208,1.013,2.552,2.552,0,0,1-.757,1.88,2.552,2.552,0,0,1-1.88.757,2.568,2.568,0,0,1-1.038-.208,2.525,2.525,0,0,1-.818-.562,2.784,2.784,0,0,1-.549-.83A2.569,2.569,0,0,1,292.793-32.4ZM31.812,38.361l-.22.1a14.454,14.454,0,0,0-4.578-2.808,15.93,15.93,0,0,0-5.872-1.05,15.9,15.9,0,0,0-5.64.964,12.321,12.321,0,0,0-4.407,2.8,12.638,12.638,0,0,0-2.869,4.492A16.746,16.746,0,0,0,7.2,48.908a24.009,24.009,0,0,0,.977,6.97,16.152,16.152,0,0,0,2.905,5.6A13.509,13.509,0,0,0,15.906,65.2a15.764,15.764,0,0,0,6.75,1.355,13.477,13.477,0,0,0,2.783-.293,13.159,13.159,0,0,0,2.673-.867,13.7,13.7,0,0,0,2.417-1.392,12.481,12.481,0,0,0,2.063-1.868l.269.171-1.953,4.98a21.042,21.042,0,0,1-4.041,1.086,26.346,26.346,0,0,1-4.456.378,24.969,24.969,0,0,1-8.264-1.306,19.021,19.021,0,0,1-6.445-3.7A16.7,16.7,0,0,1,3.5,58,18.066,18.066,0,0,1,2,50.544a17.667,17.667,0,0,1,.6-4.565,18.076,18.076,0,0,1,1.746-4.272,17.527,17.527,0,0,1,2.832-3.723,18.166,18.166,0,0,1,3.845-2.942A19.669,19.669,0,0,1,15.784,33.1a21.711,21.711,0,0,1,5.627-.7,25.778,25.778,0,0,1,8.74,1.44ZM52.6,52.546q0-2.075-.061-3.625t-.146-2.673q-.085-1.123-.22-1.88a12.978,12.978,0,0,0-.281-1.27V43h5.64v.1a8.446,8.446,0,0,0-.33,1.367,20.117,20.117,0,0,0-.208,2.075q.9-.757,1.88-1.489a16.728,16.728,0,0,1,2-1.294,11.989,11.989,0,0,1,2.087-.9,6.936,6.936,0,0,1,2.136-.342,9.386,9.386,0,0,1,1.147.061,5.877,5.877,0,0,1,1.587.415l.61.256-1.2,4.663-.415-.1a3.23,3.23,0,0,0-1.1-1.721,3.414,3.414,0,0,0-2.2-.647,5.153,5.153,0,0,0-1.587.269,9.441,9.441,0,0,0-1.685.745,16.758,16.758,0,0,0-1.709,1.1q-.854.623-1.66,1.306-.049.708-.049,1.538v8.057q0,2.075.049,3.625t.146,2.673q.1,1.123.22,1.88a11.232,11.232,0,0,0,.269,1.27V68H51.89v-.1a12.978,12.978,0,0,0,.281-1.27q.134-.757.22-1.88t.146-2.673q.061-1.55.061-3.625ZM98.14,68.439a14.85,14.85,0,0,1-5.078-.854,11.825,11.825,0,0,1-4.126-2.5,11.643,11.643,0,0,1-2.771-4.077,14.323,14.323,0,0,1-1.013-5.554,13.837,13.837,0,0,1,.928-5.115,12.63,12.63,0,0,1,2.563-4.089,11.849,11.849,0,0,1,3.821-2.71,11.444,11.444,0,0,1,4.724-.977,12.348,12.348,0,0,1,4.663.867,10.541,10.541,0,0,1,3.723,2.515,11.876,11.876,0,0,1,2.49,4.077,16.74,16.74,0,0,1,.989,5.53q-2.759-.049-5.518-.073T97.8,55.451q-2.124,0-4.138.024t-3.625.073a18.861,18.861,0,0,0,.793,4.59,11.007,11.007,0,0,0,1.782,3.5,7.7,7.7,0,0,0,2.759,2.234,8.368,8.368,0,0,0,3.674.781,10.507,10.507,0,0,0,2.673-.33A9.362,9.362,0,0,0,104,65.412a8.867,8.867,0,0,0,3.2-3.1l.293.146L105.684,66.8a15.134,15.134,0,0,1-3.149,1.16A17.658,17.658,0,0,1,98.14,68.439ZM94.893,53.547q2.441,0,4.9-.012t4.456-.085a16.014,16.014,0,0,0-.83-3.809,9.759,9.759,0,0,0-1.562-2.856A6.644,6.644,0,0,0,99.6,44.978a6.4,6.4,0,0,0-2.856-.635,5.5,5.5,0,0,0-2.6.623,6.154,6.154,0,0,0-2.063,1.794,9.541,9.541,0,0,0-1.416,2.869,15.079,15.079,0,0,0-.635,3.87q1.1.049,2.319.049ZM127.349,60.8a6.734,6.734,0,0,1,.793-3.345,7.79,7.79,0,0,1,2.112-2.417,11.55,11.55,0,0,1,3-1.624,22.577,22.577,0,0,1,3.491-.977,30.685,30.685,0,0,1,3.564-.488q1.758-.134,3.223-.159V50.544a8.353,8.353,0,0,0-.415-2.783,5.188,5.188,0,0,0-1.172-1.941,4.75,4.75,0,0,0-1.819-1.147,6.9,6.9,0,0,0-2.332-.378,10.24,10.24,0,0,0-1.733.146,9.811,9.811,0,0,0-1.77.488,12.886,12.886,0,0,0-1.929.928,20.174,20.174,0,0,0-2.185,1.489l-.244-.146,1.66-3.442a12.3,12.3,0,0,1,1.587-.6,15,15,0,0,1,1.587-.378,15.448,15.448,0,0,1,1.648-.208q.842-.061,1.77-.061a13.6,13.6,0,0,1,4.382.623,8.144,8.144,0,0,1,2.979,1.709,6.556,6.556,0,0,1,1.7,2.539,8.9,8.9,0,0,1,.537,3.113v7.959q0,2.075.061,3.625t.146,2.673q.085,1.123.22,1.88a12.979,12.979,0,0,0,.281,1.27V68h-5.4v-.1a5.058,5.058,0,0,0,.183-.879q.061-.488.11-1.172a12.612,12.612,0,0,1-1.208.9,9.67,9.67,0,0,1-1.587.842,10.851,10.851,0,0,1-1.978.61,11.41,11.41,0,0,1-2.38.232,9.789,9.789,0,0,1-6.567-1.99A7.041,7.041,0,0,1,127.349,60.8Zm16.187-7.1a42.15,42.15,0,0,0-4.272.256,11.665,11.665,0,0,0-3.625.964A6.769,6.769,0,0,0,133.623,65a5.231,5.231,0,0,0,3.979,1.514,6.573,6.573,0,0,0,2.136-.33,7.251,7.251,0,0,0,1.709-.83,6.185,6.185,0,0,0,1.257-1.1,5.374,5.374,0,0,0,.781-1.16q.049-.928.049-2.063V53.693Zm42.905-2.148a10.359,10.359,0,0,0-.33-2.783,5.346,5.346,0,0,0-.952-1.941,3.889,3.889,0,0,0-1.5-1.147,4.889,4.889,0,0,0-1.953-.378,5.356,5.356,0,0,0-1.636.293,12.325,12.325,0,0,0-1.868.793,18.631,18.631,0,0,0-1.929,1.16,18.4,18.4,0,0,0-1.819,1.416q-.049.781-.049,1.672v7.825q0,2.075.049,3.625t.146,2.673q.1,1.123.22,1.88a11.231,11.231,0,0,0,.269,1.27V68h-5.64v-.1a12.979,12.979,0,0,0,.281-1.27q.134-.757.22-1.88t.146-2.673q.061-1.55.061-3.625V52.546q0-2.075-.061-3.625t-.146-2.673q-.085-1.123-.22-1.88a12.979,12.979,0,0,0-.281-1.27V43h5.64v.1a7.191,7.191,0,0,0-.305,1.428q-.11.867-.232,2.185.977-.781,2.1-1.538a19.993,19.993,0,0,1,2.307-1.343,15.781,15.781,0,0,1,2.38-.952,8.059,8.059,0,0,1,2.368-.366,7.63,7.63,0,0,1,2.466.366,6.285,6.285,0,0,1,1.88,1,6.048,6.048,0,0,1,1.355,1.489,7.19,7.19,0,0,1,.842,1.831q1-.854,2.185-1.7a21.159,21.159,0,0,1,2.441-1.5,15.857,15.857,0,0,1,2.563-1.074,8.4,8.4,0,0,1,2.551-.415,7.231,7.231,0,0,1,3.235.659A6.218,6.218,0,0,1,205.4,44.9a6.88,6.88,0,0,1,1.221,2.454,10.521,10.521,0,0,1,.378,2.8v8.3q0,2.075.049,3.625t.146,2.673q.1,1.123.232,1.88a12.979,12.979,0,0,0,.281,1.27V68h-5.664v-.1a12.979,12.979,0,0,0,.281-1.27q.134-.757.232-1.88t.146-2.673q.049-1.55.049-3.625V51.545a7.19,7.19,0,0,0-1.294-4.736,4.329,4.329,0,0,0-3.467-1.514,5.531,5.531,0,0,0-1.672.293,11.871,11.871,0,0,0-1.892.806,19.232,19.232,0,0,0-1.953,1.184,18.942,18.942,0,0,0-1.831,1.428,3.559,3.559,0,0,1,.049.586v8.862q0,2.075.061,3.625t.146,2.673q.085,1.123.22,1.88a12.979,12.979,0,0,0,.281,1.27V68h-5.64v-.1a11.231,11.231,0,0,0,.269-1.27q.122-.757.22-1.88t.146-2.673q.049-1.55.049-3.625Z" transform="translate(-2.002 36.499)"/>
</svg>
