<svg xmlns="http://www.w3.org/2000/svg" width="242.913" height="81.55" viewBox="0 0 242.913 81.55">
  <path id="パス_3" data-name="パス 3" d="M2.863-.08a10.642,10.642,0,0,0,.23-1.041q.11-.621.19-1.542T3.4-4.855q.04-1.271.04-2.973V-20.86q0-1.7-.04-2.973t-.12-2.2q-.08-.931-.19-1.552a10.642,10.642,0,0,0-.23-1.041v-.08h4.8v.08a10.642,10.642,0,0,0-.23,1.041q-.11.621-.18,1.552t-.12,2.2q-.05,1.271-.05,2.973V-16.4l11.691-9.549q1.962-1.6,1.962-2.763h5.625v.08a7.614,7.614,0,0,0-2.392,1.071A27.192,27.192,0,0,0,21.4-25.625l-10.33,8.648L23.5-3.323q.781.8,1.331,1.331t.971.881a8.624,8.624,0,0,0,.771.581q.35.23.731.45V0H21.441a3.167,3.167,0,0,0-.27-.46q-.19-.28-.44-.581t-.541-.621q-.29-.32-.551-.6L7.087-16.036v8.208q0,1.7.05,2.973t.12,2.192q.07.921.18,1.542A10.642,10.642,0,0,0,7.667-.08V0h-4.8ZM41.989-12.672q0-1.7-.05-2.973t-.12-2.192q-.07-.921-.18-1.542a10.642,10.642,0,0,0-.23-1.041v-.08h4.625v.08a9.21,9.21,0,0,0-.22,1.041q-.1.621-.18,1.542t-.12,2.192q-.04,1.271-.04,2.973v4.845q0,1.7.04,2.973t.12,2.192q.08.921.18,1.542a9.21,9.21,0,0,0,.22,1.041V0H41.408V-.08a10.642,10.642,0,0,0,.23-1.041q.11-.621.18-1.542t.12-2.192q.05-1.271.05-2.973Zm-.42-13.894a2.056,2.056,0,0,1,.17-.831,2.283,2.283,0,0,1,.45-.681,2.071,2.071,0,0,1,.671-.46,2.106,2.106,0,0,1,.851-.17,2.106,2.106,0,0,1,.851.17,2.19,2.19,0,0,1,.681.46,2.19,2.19,0,0,1,.46.681,2.056,2.056,0,0,1,.17.831,2.093,2.093,0,0,1-.621,1.542,2.093,2.093,0,0,1-1.542.621,2.106,2.106,0,0,1-.851-.17,2.071,2.071,0,0,1-.671-.46,2.283,2.283,0,0,1-.45-.681A2.106,2.106,0,0,1,41.569-26.566Zm22.49,13.894q0-1.7-.05-2.973t-.12-2.192q-.07-.921-.18-1.542a10.642,10.642,0,0,0-.23-1.041v-.08H68.1v.08a6.925,6.925,0,0,0-.27,1.121,16.5,16.5,0,0,0-.17,1.7q.741-.621,1.542-1.221a13.717,13.717,0,0,1,1.642-1.061,9.831,9.831,0,0,1,1.712-.741,5.688,5.688,0,0,1,1.752-.28,7.7,7.7,0,0,1,.941.05,4.933,4.933,0,0,1,.721.14,4.894,4.894,0,0,1,.581.2l.5.21-.981,3.824-.34-.08a2.649,2.649,0,0,0-.9-1.411,2.8,2.8,0,0,0-1.8-.531,4.225,4.225,0,0,0-1.3.22,7.742,7.742,0,0,0-1.381.611,13.742,13.742,0,0,0-1.4.9q-.7.51-1.361,1.071-.04.581-.04,1.261v6.606q0,1.7.04,2.973t.12,2.192q.08.921.18,1.542A9.211,9.211,0,0,0,68.1-.08V0H63.478V-.08a10.642,10.642,0,0,0,.23-1.041q.11-.621.18-1.542t.12-2.192q.05-1.271.05-2.973ZM90.012-5.906a5.522,5.522,0,0,1,.651-2.743,6.388,6.388,0,0,1,1.732-1.982,9.471,9.471,0,0,1,2.462-1.331,18.513,18.513,0,0,1,2.863-.8,25.162,25.162,0,0,1,2.923-.4q1.441-.11,2.643-.13v-1.021a6.849,6.849,0,0,0-.34-2.282,4.254,4.254,0,0,0-.961-1.592,3.9,3.9,0,0,0-1.491-.941,5.66,5.66,0,0,0-1.912-.31,8.4,8.4,0,0,0-1.421.12,8.044,8.044,0,0,0-1.451.4,10.566,10.566,0,0,0-1.582.761,16.544,16.544,0,0,0-1.792,1.221l-.2-.12L93.5-19.879a10.083,10.083,0,0,1,1.3-.49,12.3,12.3,0,0,1,1.3-.31,12.667,12.667,0,0,1,1.351-.17q.691-.05,1.451-.05a11.154,11.154,0,0,1,3.594.51,6.678,6.678,0,0,1,2.442,1.4,5.376,5.376,0,0,1,1.391,2.082,7.3,7.3,0,0,1,.44,2.552v6.526q0,1.7.05,2.973t.12,2.192q.07.921.18,1.542a10.641,10.641,0,0,0,.23,1.041V0h-4.424V-.08a4.147,4.147,0,0,0,.15-.721q.05-.4.09-.961a10.342,10.342,0,0,1-.991.741,7.929,7.929,0,0,1-1.3.691,8.9,8.9,0,0,1-1.622.5A9.357,9.357,0,0,1,97.3.36a8.027,8.027,0,0,1-5.385-1.632A5.773,5.773,0,0,1,90.012-5.906Zm13.273-5.826a34.563,34.563,0,0,0-3.5.21,9.565,9.565,0,0,0-2.973.791,5.041,5.041,0,0,0-2.062,1.712,5.088,5.088,0,0,0-.771,2.953,5.032,5.032,0,0,0,1.181,3.6A4.289,4.289,0,0,0,98.42-1.221a5.39,5.39,0,0,0,1.752-.27,5.946,5.946,0,0,0,1.4-.681,5.072,5.072,0,0,0,1.031-.9,4.407,4.407,0,0,0,.641-.951q.04-.761.04-1.692v-6.016Zm35.182-1.762a8.494,8.494,0,0,0-.27-2.282,4.384,4.384,0,0,0-.781-1.592,3.189,3.189,0,0,0-1.231-.941,4.009,4.009,0,0,0-1.6-.31,4.392,4.392,0,0,0-1.341.24,10.107,10.107,0,0,0-1.531.651,15.277,15.277,0,0,0-1.582.951,15.085,15.085,0,0,0-1.491,1.161q-.04.641-.04,1.371v6.416q0,1.7.04,2.973t.12,2.192q.08.921.18,1.542a9.209,9.209,0,0,0,.22,1.041V0h-4.625V-.08a10.641,10.641,0,0,0,.23-1.041q.11-.621.18-1.542t.12-2.192q.05-1.271.05-2.973v-4.845q0-1.7-.05-2.973t-.12-2.192q-.07-.921-.18-1.542a10.641,10.641,0,0,0-.23-1.041v-.08h4.625v.08a5.9,5.9,0,0,0-.25,1.171q-.09.711-.19,1.792.8-.641,1.722-1.261a16.4,16.4,0,0,1,1.892-1.1,12.941,12.941,0,0,1,1.952-.781,6.608,6.608,0,0,1,1.942-.3,6.257,6.257,0,0,1,2.022.3,5.153,5.153,0,0,1,1.542.821,4.96,4.96,0,0,1,1.111,1.221,5.9,5.9,0,0,1,.691,1.5q.821-.7,1.792-1.391a17.35,17.35,0,0,1,2-1.231,13,13,0,0,1,2.1-.881,6.888,6.888,0,0,1,2.092-.34,5.93,5.93,0,0,1,2.653.541,5.1,5.1,0,0,1,1.782,1.421,5.642,5.642,0,0,1,1,2.012,8.627,8.627,0,0,1,.31,2.292v6.807q0,1.7.04,2.973t.12,2.192q.08.921.19,1.542A10.643,10.643,0,0,0,155.9-.08V0H151.26V-.08a10.643,10.643,0,0,0,.23-1.041q.11-.621.19-1.542t.12-2.192q.04-1.271.04-2.973v-5.666a5.9,5.9,0,0,0-1.061-3.884,3.55,3.55,0,0,0-2.843-1.241,4.535,4.535,0,0,0-1.371.24,9.734,9.734,0,0,0-1.552.661,15.77,15.77,0,0,0-1.6.971,15.533,15.533,0,0,0-1.5,1.171,2.918,2.918,0,0,1,.04.48v7.267q0,1.7.05,2.973t.12,2.192q.07.921.18,1.542a10.643,10.643,0,0,0,.23,1.041V0h-4.625V-.08a9.209,9.209,0,0,0,.22-1.041q.1-.621.18-1.542t.12-2.192q.04-1.271.04-2.973ZM182.618.36a12.177,12.177,0,0,1-4.164-.7,9.7,9.7,0,0,1-3.383-2.052A9.547,9.547,0,0,1,172.8-5.736a11.744,11.744,0,0,1-.831-4.554,11.346,11.346,0,0,1,.761-4.194,10.356,10.356,0,0,1,2.1-3.353,9.716,9.716,0,0,1,3.133-2.222,9.384,9.384,0,0,1,3.874-.8,10.126,10.126,0,0,1,3.824.711,8.644,8.644,0,0,1,3.053,2.062,9.738,9.738,0,0,1,2.042,3.343,13.727,13.727,0,0,1,.811,4.534q-2.262-.04-4.524-.06t-4.7-.02q-1.742,0-3.393.02t-2.973.06a15.465,15.465,0,0,0,.651,3.764,9.026,9.026,0,0,0,1.461,2.873,6.317,6.317,0,0,0,2.262,1.832,6.862,6.862,0,0,0,3.013.641,8.616,8.616,0,0,0,2.192-.27,7.677,7.677,0,0,0,1.872-.751,7.261,7.261,0,0,0,1.5-1.131,7.239,7.239,0,0,0,1.121-1.411l.24.12L188.8-.981a12.41,12.41,0,0,1-2.583.951A14.48,14.48,0,0,1,182.618.36Zm-2.663-12.212q2,0,4.014-.01t3.654-.07a13.131,13.131,0,0,0-.681-3.123,8,8,0,0,0-1.281-2.342,5.448,5.448,0,0,0-1.842-1.481,5.246,5.246,0,0,0-2.342-.521,4.511,4.511,0,0,0-2.132.51,5.046,5.046,0,0,0-1.692,1.471,7.824,7.824,0,0,0-1.161,2.352,12.365,12.365,0,0,0-.521,3.173q.9.04,1.9.04ZM208.171-22.1q0-1.7-.05-2.973T208-27.267q-.07-.921-.18-1.542a10.643,10.643,0,0,0-.23-1.041v-.08h4.625v.08a9.209,9.209,0,0,0-.22,1.041q-.1.621-.18,1.542t-.12,2.192q-.04,1.271-.04,2.973v9.97L218.2-18q1.722-1.5,1.722-2.5h4.645v.08a5.631,5.631,0,0,0-.991.41,8.093,8.093,0,0,0-.941.591q-.47.34-.981.771t-1.111.971l-5.866,5.345,8.048,9.509q.36.44.781.891t.841.831a8.481,8.481,0,0,0,.821.661,2.21,2.21,0,0,0,.741.36V0H220.1a2.485,2.485,0,0,0-.27-1.081,7.827,7.827,0,0,0-.971-1.421l-7.207-8.568v3.243q0,1.7.04,2.973t.12,2.192q.08.921.18,1.542a9.209,9.209,0,0,0,.22,1.041V0h-4.625V-.08a10.643,10.643,0,0,0,.23-1.041q.11-.621.18-1.542t.12-2.192q.05-1.271.05-2.973Zm32.34,9.429q0-1.7-.05-2.973t-.12-2.192q-.07-.921-.18-1.542a10.643,10.643,0,0,0-.23-1.041v-.08h4.625v.08a9.209,9.209,0,0,0-.22,1.041q-.1.621-.18,1.542t-.12,2.192q-.04,1.271-.04,2.973v4.845q0,1.7.04,2.973t.12,2.192q.08.921.18,1.542a9.209,9.209,0,0,0,.22,1.041V0H239.93V-.08a10.643,10.643,0,0,0,.23-1.041q.11-.621.18-1.542t.12-2.192q.05-1.271.05-2.973Zm-.42-13.894a2.056,2.056,0,0,1,.17-.831,2.283,2.283,0,0,1,.45-.681,2.071,2.071,0,0,1,.671-.46,2.106,2.106,0,0,1,.851-.17,2.106,2.106,0,0,1,.851.17,2.19,2.19,0,0,1,.681.46,2.19,2.19,0,0,1,.46.681,2.056,2.056,0,0,1,.17.831,2.093,2.093,0,0,1-.621,1.542,2.093,2.093,0,0,1-1.542.621,2.106,2.106,0,0,1-.851-.17,2.071,2.071,0,0,1-.671-.46,2.283,2.283,0,0,1-.45-.681A2.106,2.106,0,0,1,240.09-26.566ZM26.085,26.7l-.18.08a11.852,11.852,0,0,0-3.754-2.3,13.062,13.062,0,0,0-4.815-.861,13.038,13.038,0,0,0-4.625.791A10.1,10.1,0,0,0,9.1,26.7,10.363,10.363,0,0,0,6.747,30.38a13.732,13.732,0,0,0-.841,4.965,19.688,19.688,0,0,0,.8,5.716,13.245,13.245,0,0,0,2.382,4.594,11.077,11.077,0,0,0,3.954,3.053,12.927,12.927,0,0,0,5.535,1.111,11.051,11.051,0,0,0,2.282-.24,10.79,10.79,0,0,0,2.192-.711,11.232,11.232,0,0,0,1.982-1.141A10.234,10.234,0,0,0,26.726,46.2l.22.14-1.6,4.084a17.255,17.255,0,0,1-3.313.891,21.6,21.6,0,0,1-3.654.31A20.475,20.475,0,0,1,11.6,50.55a15.6,15.6,0,0,1-5.285-3.033A13.7,13.7,0,0,1,2.873,42.8a14.814,14.814,0,0,1-1.231-6.116,14.487,14.487,0,0,1,.49-3.744,14.823,14.823,0,0,1,1.431-3.5,14.372,14.372,0,0,1,2.322-3.053,14.9,14.9,0,0,1,3.153-2.412,16.128,16.128,0,0,1,3.9-1.592,17.8,17.8,0,0,1,4.615-.571,21.138,21.138,0,0,1,7.167,1.181ZM43.13,38.328q0-1.7-.05-2.973t-.12-2.192q-.07-.921-.18-1.542a10.642,10.642,0,0,0-.23-1.041V30.5h4.625v.08A6.926,6.926,0,0,0,46.9,31.7a16.5,16.5,0,0,0-.17,1.7q.741-.621,1.542-1.221a13.717,13.717,0,0,1,1.642-1.061,9.831,9.831,0,0,1,1.712-.741,5.688,5.688,0,0,1,1.752-.28,7.7,7.7,0,0,1,.941.05,4.819,4.819,0,0,1,1.3.34l.5.21-.981,3.824-.34-.08a2.649,2.649,0,0,0-.9-1.411,2.8,2.8,0,0,0-1.8-.531,4.226,4.226,0,0,0-1.3.22,7.742,7.742,0,0,0-1.381.611,13.742,13.742,0,0,0-1.4.9q-.7.51-1.361,1.071-.04.581-.04,1.261v6.606q0,1.7.04,2.973t.12,2.192q.08.921.18,1.542a9.21,9.21,0,0,0,.22,1.041V51H42.55v-.08a10.642,10.642,0,0,0,.23-1.041q.11-.621.18-1.542t.12-2.192q.05-1.271.05-2.973ZM80.475,51.36a12.177,12.177,0,0,1-4.164-.7,9.7,9.7,0,0,1-3.383-2.052,9.547,9.547,0,0,1-2.272-3.343,11.744,11.744,0,0,1-.831-4.554,11.346,11.346,0,0,1,.761-4.194,10.356,10.356,0,0,1,2.1-3.353A9.716,9.716,0,0,1,75.82,30.94a9.384,9.384,0,0,1,3.874-.8,10.126,10.126,0,0,1,3.824.711,8.644,8.644,0,0,1,3.053,2.062,9.738,9.738,0,0,1,2.042,3.343,13.727,13.727,0,0,1,.811,4.534q-2.262-.04-4.524-.06t-4.7-.02q-1.742,0-3.393.02t-2.973.06a15.466,15.466,0,0,0,.651,3.764,9.026,9.026,0,0,0,1.461,2.873A6.316,6.316,0,0,0,78.2,49.258a6.862,6.862,0,0,0,3.013.641,8.616,8.616,0,0,0,2.192-.27,7.677,7.677,0,0,0,1.872-.751A7.271,7.271,0,0,0,87.9,46.335l.24.12-1.481,3.563a12.41,12.41,0,0,1-2.583.951A14.48,14.48,0,0,1,80.475,51.36ZM77.812,39.148q2,0,4.014-.01t3.654-.07a13.132,13.132,0,0,0-.681-3.123A8,8,0,0,0,83.517,33.6a5.448,5.448,0,0,0-1.842-1.481,5.246,5.246,0,0,0-2.342-.521,4.511,4.511,0,0,0-2.132.51,5.046,5.046,0,0,0-1.692,1.471,7.823,7.823,0,0,0-1.161,2.352,12.365,12.365,0,0,0-.521,3.173q.9.04,1.9.04Zm26.614,5.946a5.522,5.522,0,0,1,.651-2.743,6.388,6.388,0,0,1,1.732-1.982,9.471,9.471,0,0,1,2.462-1.331,18.513,18.513,0,0,1,2.863-.8,25.162,25.162,0,0,1,2.923-.4q1.441-.11,2.643-.13V36.686a6.849,6.849,0,0,0-.34-2.282,4.254,4.254,0,0,0-.961-1.592,3.9,3.9,0,0,0-1.491-.941,5.66,5.66,0,0,0-1.912-.31,8.4,8.4,0,0,0-1.421.12,8.044,8.044,0,0,0-1.451.4,10.566,10.566,0,0,0-1.582.761,16.543,16.543,0,0,0-1.792,1.221l-.2-.12,1.361-2.823a10.083,10.083,0,0,1,1.3-.49,12.3,12.3,0,0,1,1.3-.31,12.667,12.667,0,0,1,1.351-.17q.691-.05,1.451-.05a11.154,11.154,0,0,1,3.594.51,6.678,6.678,0,0,1,2.442,1.4,5.376,5.376,0,0,1,1.391,2.082,7.3,7.3,0,0,1,.44,2.552v6.526q0,1.7.05,2.973t.12,2.192q.07.921.18,1.542a10.641,10.641,0,0,0,.23,1.041V51h-4.424v-.08a4.147,4.147,0,0,0,.15-.721q.05-.4.09-.961a10.342,10.342,0,0,1-.991.741,7.928,7.928,0,0,1-1.3.691,8.9,8.9,0,0,1-1.622.5,9.357,9.357,0,0,1-1.952.19,8.027,8.027,0,0,1-5.385-1.632A5.773,5.773,0,0,1,104.426,45.094ZM117.7,39.269a34.564,34.564,0,0,0-3.5.21,9.565,9.565,0,0,0-2.973.791,5.551,5.551,0,0,0-1.652,8.268,4.289,4.289,0,0,0,3.263,1.241,5.39,5.39,0,0,0,1.752-.27,5.946,5.946,0,0,0,1.4-.681,5.072,5.072,0,0,0,1.031-.9,4.407,4.407,0,0,0,.641-.951q.04-.761.04-1.692V39.269Zm35.182-1.762a8.494,8.494,0,0,0-.27-2.282,4.384,4.384,0,0,0-.781-1.592,3.189,3.189,0,0,0-1.231-.941,4.009,4.009,0,0,0-1.6-.31,4.392,4.392,0,0,0-1.341.24,10.107,10.107,0,0,0-1.531.651,15.278,15.278,0,0,0-1.582.951,15.085,15.085,0,0,0-1.491,1.161q-.04.641-.04,1.371v6.416q0,1.7.04,2.973t.12,2.192q.08.921.18,1.542a9.209,9.209,0,0,0,.22,1.041V51h-4.625v-.08a10.643,10.643,0,0,0,.23-1.041q.11-.621.18-1.542t.12-2.192q.05-1.271.05-2.973V38.328q0-1.7-.05-2.973t-.12-2.192q-.07-.921-.18-1.542a10.643,10.643,0,0,0-.23-1.041V30.5h4.625v.08a5.9,5.9,0,0,0-.25,1.171q-.09.711-.19,1.792.8-.641,1.722-1.261a16.4,16.4,0,0,1,1.892-1.1A12.941,12.941,0,0,1,148.7,30.4a6.608,6.608,0,0,1,1.942-.3,6.257,6.257,0,0,1,2.022.3,5.153,5.153,0,0,1,1.542.821,4.96,4.96,0,0,1,1.111,1.221,5.9,5.9,0,0,1,.691,1.5q.821-.7,1.792-1.391a17.35,17.35,0,0,1,2-1.231,13,13,0,0,1,2.1-.881,6.888,6.888,0,0,1,2.092-.34,5.93,5.93,0,0,1,2.653.541,5.1,5.1,0,0,1,1.782,1.421,5.642,5.642,0,0,1,1,2.012,8.627,8.627,0,0,1,.31,2.292v6.807q0,1.7.04,2.973t.12,2.192q.08.921.19,1.542a10.643,10.643,0,0,0,.23,1.041V51h-4.645v-.08a10.643,10.643,0,0,0,.23-1.041q.11-.621.19-1.542t.12-2.192q.04-1.271.04-2.973V37.507a5.9,5.9,0,0,0-1.061-3.884,3.55,3.55,0,0,0-2.843-1.241,4.535,4.535,0,0,0-1.371.24,9.734,9.734,0,0,0-1.552.661,15.771,15.771,0,0,0-1.6.971,15.532,15.532,0,0,0-1.5,1.171,2.918,2.918,0,0,1,.04.48v7.267q0,1.7.05,2.973t.12,2.192q.07.921.18,1.542a10.643,10.643,0,0,0,.23,1.041V51h-4.625v-.08a9.209,9.209,0,0,0,.22-1.041q.1-.621.18-1.542t.12-2.192q.04-1.271.04-2.973Z" transform="translate(-1.642 29.929)"/>
</svg>
