<svg xmlns="http://www.w3.org/2000/svg" width="158.987" height="20.604" viewBox="0 0 158.987 20.604">
  <path id="logo" d="M2.133-20.084H4.785v9.789l9.789-9.789h3.76L9.98-11.99,18.566,0H15.025L8-10.076,4.785-7V0H2.133Zm23.948,5.51h2.5V0h-2.5Zm0-5.51h2.5v2.789h-2.5ZM37.97-14.643h2.338v2.529a5.588,5.588,0,0,1,1.408-1.8,3.651,3.651,0,0,1,2.584-1.06q.068,0,.232.014t.561.055v2.6a3.676,3.676,0,0,0-.4-.055q-.185-.014-.4-.014a3.512,3.512,0,0,0-2.857,1.2,4.176,4.176,0,0,0-1,2.755V0H37.97ZM54.712-3.9a2.027,2.027,0,0,0,.779,1.682,2.889,2.889,0,0,0,1.846.615,5.612,5.612,0,0,0,2.516-.6A3.386,3.386,0,0,0,61.9-5.469V-7.451a4.21,4.21,0,0,1-1.162.479,9.9,9.9,0,0,1-1.395.273l-1.49.191a5.7,5.7,0,0,0-2.01.561A2.184,2.184,0,0,0,54.712-3.9Zm5.961-4.977a1.337,1.337,0,0,0,1.135-.711,2.163,2.163,0,0,0,.164-.943,2,2,0,0,0-.9-1.825,4.8,4.8,0,0,0-2.563-.567,3.257,3.257,0,0,0-2.734,1.039,3.418,3.418,0,0,0-.588,1.709h-2.3a4.228,4.228,0,0,1,1.757-3.767A7.213,7.213,0,0,1,58.568-15a7.97,7.97,0,0,1,4.2.984,3.34,3.34,0,0,1,1.6,3.063v8.436a1.08,1.08,0,0,0,.157.615.758.758,0,0,0,.663.232q.164,0,.369-.021t.438-.062V.068a6.854,6.854,0,0,1-.875.205,6.394,6.394,0,0,1-.82.041,2.024,2.024,0,0,1-1.846-.9,3.482,3.482,0,0,1-.424-1.354,6.261,6.261,0,0,1-2.16,1.709,6.682,6.682,0,0,1-3.1.725A4.615,4.615,0,0,1,53.434-.745a4.11,4.11,0,0,1-1.292-3.1A3.989,3.989,0,0,1,53.413-7a6.05,6.05,0,0,1,3.336-1.381Zm12.682-.191h6.863v2.529H73.355Zm15.567-5.578h2.434v2.078a8.18,8.18,0,0,1,1.586-1.572,4.77,4.77,0,0,1,2.762-.834,4.346,4.346,0,0,1,2.816.861,4.5,4.5,0,0,1,1.094,1.449,5.319,5.319,0,0,1,1.928-1.743,5.377,5.377,0,0,1,2.488-.567q2.953,0,4.02,2.133a6.972,6.972,0,0,1,.574,3.09V0h-2.557V-10.172a2.369,2.369,0,0,0-.731-2.01,2.9,2.9,0,0,0-1.784-.547,3.542,3.542,0,0,0-2.5.971,4.263,4.263,0,0,0-1.046,3.24V0h-2.5V-9.557a4.965,4.965,0,0,0-.355-2.174,2.168,2.168,0,0,0-2.092-1.025,3.609,3.609,0,0,0-2.536,1.08q-1.142,1.08-1.142,3.91V0H88.922Zm35.022-.328a6.679,6.679,0,0,1,3.021.731,5.572,5.572,0,0,1,2.229,1.894,6.533,6.533,0,0,1,.984,2.584,16.907,16.907,0,0,1,.219,3.227H119.664a6.263,6.263,0,0,0,1.053,3.575,3.525,3.525,0,0,0,3.049,1.347,3.941,3.941,0,0,0,3.076-1.271,4.286,4.286,0,0,0,.93-1.709h2.42a5.1,5.1,0,0,1-.636,1.8,6.4,6.4,0,0,1-1.21,1.62A5.735,5.735,0,0,1,125.571.3a8.431,8.431,0,0,1-2.01.219,6.166,6.166,0,0,1-4.635-1.989,7.74,7.74,0,0,1-1.9-5.571,8.416,8.416,0,0,1,1.914-5.729A6.314,6.314,0,0,1,123.944-14.971Zm3.924,6.48a6.376,6.376,0,0,0-.7-2.557,3.574,3.574,0,0,0-3.377-1.777A3.743,3.743,0,0,0,120.95-11.6a4.622,4.622,0,0,0-1.217,3.11Zm11.1-11.594h2.365V-8.422l6.316-6.221h3.145L145.184-9.16,151.1,0H147.96l-4.566-7.383L141.329-5.5V0h-2.365Zm19.655,5.51h2.5V0h-2.5Zm0-5.51h2.5v2.789h-2.5Z" transform="translate(-2.133 20.084)"/>
</svg>
