<svg xmlns="http://www.w3.org/2000/svg" width="162.542" height="20.686" viewBox="0 0 162.542 20.686">
  <g id="ロゴ" transform="translate(-668.955 -26.561)">
    <path id="logo" d="M1.955-.055a7.268,7.268,0,0,0,.157-.711q.075-.424.13-1.053t.082-1.5q.027-.868.027-2.03v-8.9q0-1.162-.027-2.03t-.082-1.5q-.055-.636-.13-1.06a7.267,7.267,0,0,0-.157-.711v-.055H5.236v.055a7.268,7.268,0,0,0-.157.711q-.075.424-.123,1.06t-.082,1.5q-.034.868-.034,2.03V-11.2l7.984-6.521q1.34-1.094,1.34-1.887h3.842v.055a5.2,5.2,0,0,0-1.634.731A18.57,18.57,0,0,0,14.615-17.5L7.561-11.594l8.49,9.324q.533.547.909.909t.663.6a5.89,5.89,0,0,0,.526.4q.239.157.5.308V0H14.643a2.163,2.163,0,0,0-.185-.314q-.13-.191-.3-.4t-.369-.424q-.2-.219-.376-.41L4.84-10.951v5.605q0,1.162.034,2.03t.082,1.5Q5-1.189,5.079-.766a7.268,7.268,0,0,0,.157.711V0H1.955Zm23.92-8.6q0-1.162-.034-2.03t-.082-1.5q-.048-.629-.123-1.053a7.268,7.268,0,0,0-.157-.711V-14h3.158v.055a6.29,6.29,0,0,0-.15.711q-.068.424-.123,1.053t-.082,1.5q-.027.868-.027,2.03v3.309q0,1.162.027,2.03t.082,1.5q.055.629.123,1.053a6.29,6.29,0,0,0,.15.711V0H25.479V-.055a7.268,7.268,0,0,0,.157-.711q.075-.424.123-1.053t.082-1.5q.034-.868.034-2.03Zm-.287-9.488a1.4,1.4,0,0,1,.116-.567,1.559,1.559,0,0,1,.308-.465,1.414,1.414,0,0,1,.458-.314,1.438,1.438,0,0,1,.581-.116,1.438,1.438,0,0,1,.581.116,1.5,1.5,0,0,1,.465.314,1.5,1.5,0,0,1,.314.465,1.4,1.4,0,0,1,.116.567A1.429,1.429,0,0,1,28.1-17.09a1.429,1.429,0,0,1-1.053.424,1.438,1.438,0,0,1-.581-.116,1.414,1.414,0,0,1-.458-.314,1.559,1.559,0,0,1-.308-.465A1.438,1.438,0,0,1,25.588-18.143ZM38.147-8.654q0-1.162-.034-2.03t-.082-1.5q-.048-.629-.123-1.053a7.267,7.267,0,0,0-.157-.711V-14h3.158v.055a4.73,4.73,0,0,0-.185.766,11.266,11.266,0,0,0-.116,1.162q.506-.424,1.053-.834a9.368,9.368,0,0,1,1.121-.725,6.714,6.714,0,0,1,1.169-.506,3.884,3.884,0,0,1,1.2-.191,5.257,5.257,0,0,1,.643.034,3.369,3.369,0,0,1,.492.1,3.342,3.342,0,0,1,.4.137l.342.144-.67,2.611-.232-.055a1.809,1.809,0,0,0-.615-.964,1.912,1.912,0,0,0-1.23-.362,2.886,2.886,0,0,0-.889.15,5.287,5.287,0,0,0-.943.417,9.385,9.385,0,0,0-.957.615q-.479.349-.93.731-.027.4-.027.861v4.512q0,1.162.027,2.03t.082,1.5q.055.629.123,1.053a6.29,6.29,0,0,0,.15.711V0H37.751V-.055a7.267,7.267,0,0,0,.157-.711q.075-.424.123-1.053t.082-1.5q.034-.868.034-2.03ZM53.071-4.033a3.771,3.771,0,0,1,.444-1.873A4.362,4.362,0,0,1,54.7-7.26a6.468,6.468,0,0,1,1.682-.909,12.643,12.643,0,0,1,1.955-.547,17.184,17.184,0,0,1,2-.273q.984-.075,1.8-.089v-.7a4.678,4.678,0,0,0-.232-1.559,2.905,2.905,0,0,0-.656-1.087,2.66,2.66,0,0,0-1.019-.643,3.865,3.865,0,0,0-1.306-.212,5.735,5.735,0,0,0-.971.082,5.494,5.494,0,0,0-.991.273,7.216,7.216,0,0,0-1.08.52,11.3,11.3,0,0,0-1.224.834l-.137-.082.93-1.928a6.886,6.886,0,0,1,.889-.335,8.4,8.4,0,0,1,.889-.212,8.651,8.651,0,0,1,.923-.116q.472-.034.991-.034a7.618,7.618,0,0,1,2.454.349,4.561,4.561,0,0,1,1.668.957,3.672,3.672,0,0,1,.95,1.422,4.986,4.986,0,0,1,.3,1.743v4.457q0,1.162.034,2.03t.082,1.5q.048.629.123,1.053a7.268,7.268,0,0,0,.157.711V0H61.89V-.055a2.832,2.832,0,0,0,.1-.492q.034-.273.062-.656a7.063,7.063,0,0,1-.677.506,5.415,5.415,0,0,1-.889.472,6.077,6.077,0,0,1-1.107.342,6.39,6.39,0,0,1-1.333.13A5.482,5.482,0,0,1,54.37-.868,3.943,3.943,0,0,1,53.071-4.033Zm9.064-3.979a23.6,23.6,0,0,0-2.393.144,6.532,6.532,0,0,0-2.03.54A3.443,3.443,0,0,0,56.3-6.159a3.475,3.475,0,0,0-.526,2.017,3.436,3.436,0,0,0,.807,2.461,2.929,2.929,0,0,0,2.229.848,3.681,3.681,0,0,0,1.2-.185,4.061,4.061,0,0,0,.957-.465,3.464,3.464,0,0,0,.7-.615,3.01,3.01,0,0,0,.438-.649q.027-.52.027-1.155V-8.012ZM73.259-6.248V-8.2H82.5v1.955Zm27.188-2.967a5.8,5.8,0,0,0-.185-1.559,2.994,2.994,0,0,0-.533-1.087,2.178,2.178,0,0,0-.841-.643,2.738,2.738,0,0,0-1.094-.212,3,3,0,0,0-.916.164,6.9,6.9,0,0,0-1.046.444,10.433,10.433,0,0,0-1.08.649,10.3,10.3,0,0,0-1.019.793q-.027.438-.027.937v4.382q0,1.162.027,2.03t.082,1.5q.055.629.123,1.053a6.289,6.289,0,0,0,.15.711V0H90.932V-.055a7.268,7.268,0,0,0,.157-.711q.075-.424.123-1.053t.082-1.5q.034-.868.034-2.03V-8.654q0-1.162-.034-2.03t-.082-1.5q-.048-.629-.123-1.053a7.268,7.268,0,0,0-.157-.711V-14H94.09v.055a4.027,4.027,0,0,0-.171.8q-.062.485-.13,1.224.547-.438,1.176-.861a11.2,11.2,0,0,1,1.292-.752,8.838,8.838,0,0,1,1.333-.533,4.513,4.513,0,0,1,1.326-.205,4.273,4.273,0,0,1,1.381.205,3.519,3.519,0,0,1,1.053.561,3.387,3.387,0,0,1,.759.834,4.026,4.026,0,0,1,.472,1.025q.561-.479,1.224-.95a11.849,11.849,0,0,1,1.367-.841,8.88,8.88,0,0,1,1.436-.6,4.7,4.7,0,0,1,1.429-.232,4.05,4.05,0,0,1,1.812.369,3.482,3.482,0,0,1,1.217.971,3.853,3.853,0,0,1,.684,1.374,5.891,5.891,0,0,1,.212,1.565v4.648q0,1.162.027,2.03t.082,1.5q.055.629.13,1.053a7.268,7.268,0,0,0,.157.711V0h-3.172V-.055a7.268,7.268,0,0,0,.157-.711q.075-.424.13-1.053t.082-1.5q.027-.868.027-2.03V-9.215a4.027,4.027,0,0,0-.725-2.652,2.424,2.424,0,0,0-1.941-.848,3.1,3.1,0,0,0-.937.164,6.648,6.648,0,0,0-1.06.451,10.77,10.77,0,0,0-1.094.663,10.608,10.608,0,0,0-1.025.8,1.993,1.993,0,0,1,.027.328v4.963q0,1.162.034,2.03t.082,1.5q.048.629.123,1.053a7.268,7.268,0,0,0,.157.711V0h-3.158V-.055a6.289,6.289,0,0,0,.15-.711q.068-.424.123-1.053t.082-1.5q.027-.868.027-2.03ZM127.8.246a8.316,8.316,0,0,1-2.844-.479,6.622,6.622,0,0,1-2.311-1.4,6.52,6.52,0,0,1-1.552-2.283,8.021,8.021,0,0,1-.567-3.11,7.749,7.749,0,0,1,.52-2.864,7.073,7.073,0,0,1,1.436-2.29,6.636,6.636,0,0,1,2.14-1.518,6.409,6.409,0,0,1,2.646-.547,6.915,6.915,0,0,1,2.611.485,5.9,5.9,0,0,1,2.085,1.408,6.651,6.651,0,0,1,1.395,2.283,9.374,9.374,0,0,1,.554,3.1q-1.545-.027-3.09-.041t-3.213-.014q-1.189,0-2.317.014t-2.03.041A10.562,10.562,0,0,0,123.7-4.4a6.164,6.164,0,0,0,1,1.962,4.314,4.314,0,0,0,1.545,1.251,4.686,4.686,0,0,0,2.058.438,5.884,5.884,0,0,0,1.5-.185,5.243,5.243,0,0,0,1.278-.513,4.959,4.959,0,0,0,1.025-.772,4.944,4.944,0,0,0,.766-.964l.164.082L132.024-.67a8.475,8.475,0,0,1-1.764.649A9.889,9.889,0,0,1,127.8.246Zm-1.818-8.34q1.367,0,2.741-.007t2.5-.048a8.968,8.968,0,0,0-.465-2.133,5.465,5.465,0,0,0-.875-1.6,3.721,3.721,0,0,0-1.258-1.012,3.582,3.582,0,0,0-1.6-.355,3.081,3.081,0,0,0-1.456.349,3.446,3.446,0,0,0-1.155,1,5.343,5.343,0,0,0-.793,1.606,8.444,8.444,0,0,0-.355,2.167q.615.027,1.3.027Zm16.469-7q0-1.162-.034-2.03t-.082-1.5q-.048-.629-.123-1.053a7.266,7.266,0,0,0-.157-.711v-.055h3.158v.055a6.291,6.291,0,0,0-.15.711q-.068.424-.123,1.053t-.082,1.5q-.027.868-.027,2.03v6.809l4.471-4.006q1.176-1.025,1.176-1.709h3.172v.055a3.845,3.845,0,0,0-.677.28,5.527,5.527,0,0,0-.643.4q-.321.232-.67.526t-.759.663l-4.006,3.65,5.5,6.494q.246.3.533.608t.574.567a5.791,5.791,0,0,0,.561.451,1.509,1.509,0,0,0,.506.246V0H150.6a1.7,1.7,0,0,0-.185-.738,5.345,5.345,0,0,0-.663-.971l-4.922-5.852v2.215q0,1.162.027,2.03t.082,1.5q.055.629.123,1.053a6.291,6.291,0,0,0,.15.711V0h-3.158V-.055a7.266,7.266,0,0,0,.157-.711q.075-.424.123-1.053t.082-1.5q.034-.868.034-2.03Zm19.286,6.439q0-1.162-.034-2.03t-.082-1.5q-.048-.629-.123-1.053a7.266,7.266,0,0,0-.157-.711V-14H164.5v.055a6.291,6.291,0,0,0-.15.711q-.068.424-.123,1.053t-.082,1.5q-.027.868-.027,2.03v3.309q0,1.162.027,2.03t.082,1.5q.055.629.123,1.053a6.291,6.291,0,0,0,.15.711V0h-3.158V-.055a7.266,7.266,0,0,0,.157-.711q.075-.424.123-1.053t.082-1.5q.034-.868.034-2.03Zm-.287-9.488a1.4,1.4,0,0,1,.116-.567,1.559,1.559,0,0,1,.308-.465,1.414,1.414,0,0,1,.458-.314,1.438,1.438,0,0,1,.581-.116,1.438,1.438,0,0,1,.581.116,1.5,1.5,0,0,1,.465.314,1.5,1.5,0,0,1,.314.465,1.4,1.4,0,0,1,.116.567,1.429,1.429,0,0,1-.424,1.053,1.429,1.429,0,0,1-1.053.424,1.438,1.438,0,0,1-.581-.116,1.414,1.414,0,0,1-.458-.314,1.559,1.559,0,0,1-.308-.465A1.438,1.438,0,0,1,161.448-18.143Z" transform="translate(667 47)"/>
  </g>
</svg>
